<?xml version="1.0" standalone="no"?>
<!DOCTYPE svg PUBLIC "-//W3C//DTD SVG 1.1//EN" "http://www.w3.org/Graphics/SVG/1.1/DTD/svg11.dtd">
<svg xmlns="http://www.w3.org/2000/svg">
<metadata>Copyright (C) 2023 by original authors @ fontello.com</metadata>
<defs>
<font id="pyx" horiz-adv-x="1000" >
<font-face font-family="pyx" font-weight="400" font-stretch="normal" units-per-em="1000" ascent="850" descent="-150" />
<missing-glyph horiz-adv-x="1000" />
<glyph glyph-name="menu" unicode="&#xe800;" d="M125 517v83h750v-83h-750z m0-209h750v84h-750v-84z m0-208h750v83h-750v-83z" horiz-adv-x="1000" />

<glyph glyph-name="arrow_back" unicode="&#xe801;" d="M833 392h-507l233 233-59 58-333-333 333-333 59 58-233 233h507v84z" horiz-adv-x="1000" />

<glyph glyph-name="arrow_forward" unicode="&#xe802;" d="M500 683l-59-58 233-233h-507v-84h507l-233-233 59-58 333 333-333 333z" horiz-adv-x="1000" />

<glyph glyph-name="check" unicode="&#xe803;" d="M375 176l-174 174-59-59 233-233 500 500-59 59-441-441z" horiz-adv-x="1000" />

<glyph glyph-name="close" unicode="&#xe804;" d="M792 583l-59 59-233-233-233 233-59-59 233-233-233-233 59-59 233 233 233-233 59 59-233 233 233 233z" horiz-adv-x="1000" />

<glyph glyph-name="add" unicode="&#xe805;" d="M833 308h-291v-291h-84v291h-291v84h291v291h84v-291h291v-84z" horiz-adv-x="1000" />

<glyph glyph-name="circle" unicode="&#xe806;" d="M500 100c138 0 250 112 250 250 0 138-112 250-250 250-138 0-250-112-250-250 0-138 112-250 250-250z" horiz-adv-x="1000" />

<glyph glyph-name="triangle" unicode="&#xe807;" d="M500 600l292-500h-584l292 500z" horiz-adv-x="1000" />

<glyph glyph-name="square" unicode="&#xe808;" d="M250 600h500v-500h-500v500z" horiz-adv-x="1000" />

<glyph glyph-name="pentagon" unicode="&#xe809;" d="M500 642l277-202-106-326h-342l-106 326 277 202z" horiz-adv-x="1000" />

<glyph glyph-name="hexagon" unicode="&#xe80a;" d="M500 642l253-146v-292l-253-146-253 146v292l253 146z" horiz-adv-x="1000" />

<glyph glyph-name="circle_outlined" unicode="&#xe80b;" d="M500 183c92 0 167 75 167 167 0 92-75 167-167 167-92 0-167-75-167-167 0-92 75-167 167-167z m250 167c0-138-112-250-250-250-138 0-250 112-250 250 0 138 112 250 250 250 138 0 250-112 250-250z" horiz-adv-x="1000" />

<glyph glyph-name="triangle_outlined" unicode="&#xe80c;" d="M500 600l292-500h-584l292 500z m0-165l-147-252h294l-147 252z" horiz-adv-x="1000" />

<glyph glyph-name="square_outline" unicode="&#xe80d;" d="M667 517h-334v-334h334v334z m-417 83h500v-500h-500v500z" horiz-adv-x="1000" />

<glyph glyph-name="pentagon_outline" unicode="&#xe80e;" d="M500 539l-179-131 68-211h222l68 211-179 131z m277-99l-106-326h-342l-106 326 277 202 277-202z" horiz-adv-x="1000" />

<glyph glyph-name="hexagon_outline" unicode="&#xe80f;" d="M500 545l-169-97v-196l169-97 169 97v196l-169 97z m253-49v-292l-253-146-253 146v292l253 146 253-146z" horiz-adv-x="1000" />

<glyph glyph-name="fast_rewind" unicode="&#xe810;" d="M781 439v-178l-126 89 126 89z m-375 0v-178l-126 89 126 89z m459 161l-355-250 355-250v500z m-375 0l-355-250 355-250v500z" horiz-adv-x="1000" />

<glyph glyph-name="skip_previous" unicode="&#xe811;" d="M250 600h83v-500h-83v500z m146-250l354-250v500l-354-250z m271-89l-127 89 127 89v-178z" horiz-adv-x="1000" />

<glyph glyph-name="play_arrow" unicode="&#xe812;" d="M354 490l220-140-220-140v280z m-83 152v-584l458 292-458 292z" horiz-adv-x="1000" />

<glyph glyph-name="skip_next" unicode="&#xe813;" d="M250 100l354 250-354 250v-500z m83 339l127-89-127-89v178z m334 161h83v-500h-83v500z" horiz-adv-x="1000" />

<glyph glyph-name="fast_forward" unicode="&#xe814;" d="M594 439l126-89-126-89v178z m-375 0l126-89-126-89v178z m291 161v-500l355 250-355 250z m-375 0v-500l355 250-355 250z" horiz-adv-x="1000" />

<glyph glyph-name="arrow_right" unicode="&#xe815;" d="M417 142l208 208-208 208v-416z" horiz-adv-x="1000" />

<glyph glyph-name="arrow_left" unicode="&#xe816;" d="M583 558l-208-208 208-208v416z" horiz-adv-x="1000" />

<glyph glyph-name="arrow_drop_up" unicode="&#xe817;" d="M292 267l208 208 208-208h-416z" horiz-adv-x="1000" />

<glyph glyph-name="arrow_drop_down" unicode="&#xe818;" d="M292 433l208-208 208 208h-416z" horiz-adv-x="1000" />

<glyph glyph-name="directions_bus" unicode="&#xe819;" d="M500 746c-184 0-333-21-333-167v-416c0-37 16-70 41-93v-74c0-23 19-42 42-42h42c23 0 41 19 41 42v42h334v-42c0-23 18-42 41-42h42c23 0 42 19 42 42v74c25 23 41 56 41 93v416c0 146-149 167-333 167z m236-125h-472c23 22 82 42 236 42 154 0 213-20 236-42z m14-83v-125h-500v125h500z m-14-406l-12-11h-448l-12 11c-5 5-14 15-14 31v166h500v-166c0-16-9-26-14-31z m-382 31c35 0 63 28 63 62 0 35-28 63-63 63-34 0-62-28-62-63 0-34 28-62 62-62z m292 0c34 0 62 28 62 62 0 35-28 63-62 63-35 0-63-28-63-63 0-34 28-62 63-62z" horiz-adv-x="1000" />

<glyph glyph-name="directions_transit" unicode="&#xe81a;" d="M500 746c-167 0-333-21-333-167v-396c0-80 65-145 146-145l-63-42v-42h500v42l-62 42c80 0 145 65 145 145v396c0 146-149 167-333 167z m0-83c155 0 214-20 236-42h-468c25 22 85 42 232 42z m-250-125h208v-125h-208v125z m500-355c0-34-28-62-62-62h-375c-35 0-63 28-63 62v146h500v-146z m0 230h-208v125h208v-125z m-396-250c35 0 63 28 63 62 0 35-28 63-63 63-34 0-62-28-62-63 0-34 28-62 62-62z m292 0c34 0 62 28 62 62 0 35-28 63-62 63-35 0-63-28-63-63 0-34 28-62 63-62z" horiz-adv-x="1000" />

<glyph glyph-name="directions_car" unicode="&#xe81b;" d="M788 641c-8 25-31 42-59 42h-458c-28 0-51-17-59-42l-87-249v-334c0-23 19-41 42-41h41c23 0 42 18 42 41v42h500v-42c0-23 19-41 42-41h41c23 0 42 18 42 41v334l-87 249z m-503-41h429l45-130h-519l45 130z m507-417h-584v209h584v-209z m-479 42c34 0 62 28 62 63 0 34-28 62-62 62-35 0-63-28-63-62 0-35 28-63 63-63z m375 0c34 0 62 28 62 63 0 34-28 62-62 62-35 0-63-28-63-62 0-35 28-63 63-63z" horiz-adv-x="1000" />

<glyph glyph-name="search" unicode="&#xe81c;" d="M615 297l239-239-62-62-239 239c-45-32-98-52-157-52-150 0-271 122-271 271 0 150 121 271 271 271 149 0 271-121 271-271 0-59-20-112-52-157z m-219 345c-104 0-188-84-188-188 0-104 84-187 188-187 104 0 187 83 187 187 0 104-83 188-187 188z" horiz-adv-x="1000" />

<glyph glyph-name="directions_taxi" unicode="&#xe81e;" d="M788 600l87-250v-333c0-23-19-42-42-42h-41c-23 0-42 19-42 42v41h-500v-41c0-23-19-42-42-42h-41c-23 0-42 19-42 42v333l87 250c8 24 31 42 59 42h104v83h250v-83h104c28 0 51-18 59-42z m-503-42l-43-125h516l-44 125h-429z m465-416h42v194l-5 14h-574l-5-14v-194h42 500z m-437 41c34 0 62 28 62 63 0 34-28 62-62 62-35 0-63-28-63-62 0-35 28-63 63-63z m437 63c0-35-28-63-62-63-35 0-63 28-63 63 0 34 28 62 63 62 34 0 62-28 62-62z" horiz-adv-x="1000" />

<glyph glyph-name="check_box_filled" unicode="&#xe81f;" d="M208 725h584c46 0 83-37 83-83v-584c0-45-37-83-83-83h-584c-45 0-83 38-83 83v584c0 46 38 83 83 83z m484-192l-275-275-109 109-58-59 167-166 333 333-58 58z" horiz-adv-x="1000" />

<glyph glyph-name="check_box" unicode="&#xe820;" d="M792 725h-584c-45 0-83-37-83-83v-584c0-45 38-83 83-83h584c46 0 83 38 83 83v584c0 46-37 83-83 83z m0-667h-584v584h584v-584z m-42 417l-59 59-275-274-107 107-59-59 166-166 334 333z" horiz-adv-x="1000" />

<glyph glyph-name="check_box_outline_blank" unicode="&#xe821;" d="M792 642v-584h-584v584h584z m0 83h-584c-45 0-83-37-83-83v-584c0-45 38-83 83-83h584c46 0 83 38 83 83v584c0 46-37 83-83 83z" horiz-adv-x="1000" />

<glyph glyph-name="indeterminate_check_box" unicode="&#xe822;" d="M792 725h-584c-45 0-83-37-83-83v-584c0-45 38-83 83-83h584c46 0 83 38 83 83v584c0 46-37 83-83 83z m0-667h-584v584h584v-584z m-500 334h416v-84h-416v84z" horiz-adv-x="1000" />

<glyph glyph-name="indeterminate_check_box-filled" unicode="&#xe823;" d="M208 725h584c46 0 83-37 83-83v-584c0-46-37-83-83-83h-584c-46 0-83 37-83 83v584c0 46 37 83 83 83z m500-333h-416v-84h416v84z" horiz-adv-x="1000" />

<glyph glyph-name="mail_outline" unicode="&#xe824;" d="M833 683h-666c-46 0-83-37-83-83l-1-500c0-46 38-83 84-83h666c46 0 84 37 84 83v500c0 46-38 83-84 83z m0-583h-666v417l333-209 333 209v-417z m-333 292l-333 208h666l-333-208z" horiz-adv-x="1000" />

<glyph glyph-name="bookmark_outline" unicode="&#xe825;" d="M292 725h416c46 0 84-37 84-83v-667l-292 125-292-125v667c0 46 38 83 84 83z m208-534l208-91v542h-416v-542l208 91z" horiz-adv-x="1000" />

<glyph glyph-name="bookmark" unicode="&#xe826;" d="M708 725h-416c-46 0-84-37-84-83v-667l292 125 292-125v667c0 46-38 83-84 83z" horiz-adv-x="1000" />

<glyph glyph-name="account_circle_filled" unicode="&#xe827;" d="M500 767c-230 0-417-187-417-417 0-230 187-417 417-417 230 0 417 187 417 417 0 230-187 417-417 417z m265-618c-60 72-204 97-265 97-61 0-205-25-265-97-42 56-68 125-68 201 0 184 149 333 333 333 184 0 333-149 333-333 0-76-25-145-68-201z m-411 305c0 81 65 146 146 146 81 0 146-65 146-146 0-81-65-146-146-146-81 0-146 65-146 146z" horiz-adv-x="1000" />

<glyph glyph-name="person_outline" unicode="&#xe828;" d="M500 683c-92 0-167-74-167-166 0-92 75-167 167-167 92 0 167 75 167 167 0 92-75 166-167 166z m83-166c0 46-37 83-83 83-46 0-83-37-83-83 0-46 37-84 83-84 46 0 83 38 83 84z m167-375c-8 29-137 83-250 83-112 0-242-54-250-84v-41h500v42z m-583 0c0 111 222 166 333 166 111 0 333-55 333-166v-125h-666v125z" horiz-adv-x="1000" />

<glyph glyph-name="chat_bubble" unicode="&#xe829;" d="M833 767h-666c-46 0-84-38-84-84v-750l167 167h583c46 0 84 38 84 83v500c0 46-38 84-84 84z" horiz-adv-x="1000" />

<glyph glyph-name="chat_bubble_outline" unicode="&#xe82a;" d="M833 767h-666c-46 0-84-38-84-84v-750l167 167h583c46 0 84 38 84 83v500c0 46-38 84-84 84z m0-584h-583l-83-83v583h666v-500z" horiz-adv-x="1000" />

<glyph glyph-name="light_mode" unicode="&#xe82b;" d="M500 475c69 0 125-56 125-125 0-69-56-125-125-125-69 0-125 56-125 125 0 69 56 125 125 125z m0 83c-115 0-208-93-208-208 0-115 93-208 208-208 115 0 208 93 208 208 0 115-93 208-208 208z m-417-250h84c23 0 41 19 41 42 0 23-18 42-41 42h-84c-23 0-41-19-41-42 0-23 18-42 41-42z m750 0h84c23 0 41 19 41 42 0 23-18 42-41 42h-84c-23 0-41-19-41-42 0-23 18-42 41-42z m-375 459v-84c0-23 19-41 42-41 23 0 42 18 42 41v84c0 23-19 41-42 41-23 0-42-18-42-41z m0-750v-84c0-23 19-41 42-41 23 0 42 18 42 41v84c0 23-19 41-42 41-23 0-42-18-42-41z m-208 642c-17 16-43 16-59 0-16-16-16-43 0-59l44-44c16-16 43-16 59 0 16 17 16 43 0 59l-44 44z m515-515c-16 16-43 16-59 0-16-16-16-43 0-59l44-44c17-16 43-16 59 0 16 16 16 43 0 59l-44 44z m44 456c16 17 16 43 0 59-16 16-43 16-59 0l-44-44c-16-16-16-43 0-59 17-16 43-16 59 0l44 44z m-515-515c16 16 16 43 0 59-16 16-43 16-59 0l-44-44c-16-17-16-43 0-59 16-16 43-16 59 0l44 44z" horiz-adv-x="1000" />

<glyph glyph-name="dark_mode" unicode="&#xe82c;" d="M390 620c-7-26-11-54-11-82 0-170 139-309 309-309 28 0 56 4 82 11-43-106-148-182-270-182-161 0-292 131-292 292 0 122 76 227 182 270z m110 105c-207 0-375-168-375-375 0-207 168-375 375-375 207 0 375 168 375 375 0 19-2 38-4 57-41-57-108-94-183-94-125 0-225 100-225 225 0 75 37 142 94 183-19 2-38 4-57 4z" horiz-adv-x="1000" />

<glyph glyph-name="delete" unicode="&#xe82d;" d="M625 725v-42h208v-83h-41v-542c0-45-38-83-84-83h-416c-46 0-84 38-84 83v542h-41v83h208v42h250z m-333-667h416v542h-416v-542z m83 459h83v-375h-83v375z m250 0h-83v-375h83v375z" horiz-adv-x="1000" />

<glyph glyph-name="radio_button_checked" unicode="&#xe82e;" d="M500 767c-230 0-417-187-417-417 0-230 187-417 417-417 230 0 417 187 417 417 0 230-187 417-417 417z m0-750c-184 0-333 149-333 333 0 184 149 333 333 333 184 0 333-149 333-333 0-184-149-333-333-333z m0 125c115 0 208 93 208 208 0 115-93 208-208 208-115 0-208-93-208-208 0-115 93-208 208-208z" horiz-adv-x="1000" />

<glyph glyph-name="radio_button_unchecked" unicode="&#xe82f;" d="M500 767c-230 0-417-187-417-417 0-230 187-417 417-417 230 0 417 187 417 417 0 230-187 417-417 417z m0-750c-184 0-333 149-333 333 0 184 149 333 333 333 184 0 333-149 333-333 0-184-149-333-333-333z" horiz-adv-x="1000" />

<glyph glyph-name="star" unicode="&#xe830;" d="M500 110l258-156-69 293 228 197-300 26-117 276-117-276-300-26 228-197-68-293 257 156z" horiz-adv-x="1000" />

<glyph glyph-name="star_border" unicode="&#xe831;" d="M917 444l-300 26-117 276-117-276-300-26 228-197-68-293 257 156 258-156-68 293 227 197z m-417-256l-157-95 42 178-138 120 182 16 71 168 71-168 183-16-139-120 42-178-157 95z" horiz-adv-x="1000" />

<glyph glyph-name="folder" unicode="&#xe832;" d="M382 600l83-83h368v-417h-666v500h215z m35 83h-250c-46 0-83-37-83-83l-1-500c0-46 38-83 84-83h666c46 0 84 37 84 83v417c0 46-38 83-84 83h-333l-83 83z" horiz-adv-x="1000" />

<glyph glyph-name="navigate_before" unicode="&#xe833;" d="M654 541l-58 59-250-250 250-250 58 59-190 191 190 191z" horiz-adv-x="1000" />

<glyph glyph-name="navigate_next" unicode="&#xe834;" d="M404 600l-58-59 191-191-191-191 58-59 250 250-250 250z" horiz-adv-x="1000" />

<glyph glyph-name="file_upload" unicode="&#xe835;" d="M750 225v-125h-500v125h-83v-125c0-46 37-83 83-83h500c46 0 83 37 83 83v125h-83z m-458 250l58-59 108 108v-341h84v341l108-108 58 59-208 208-208-208z" horiz-adv-x="1000" />

<glyph glyph-name="file_download" unicode="&#xe836;" d="M750 225v-125h-500v125h-83v-125c0-46 37-83 83-83h500c46 0 83 37 83 83v125h-83z m-42 167l-58 58-108-107v340h-84v-340l-108 107-58-58 208-209 208 209z" horiz-adv-x="1000" />

<glyph glyph-name="folder_filled" unicode="&#xe837;" d="M500 600h333c46 0 84-37 84-83v-417c0-46-38-83-84-83h-666c-46 0-84 37-84 83l1 500c0 46 37 83 83 83h250l83-83z" horiz-adv-x="1000" />

<glyph glyph-name="mobile_friendly" unicode="&#xe838;" d="M167-25v750c0 46 37 83 83 83l417 0c46 0 83-37 83-83v-167h-83v42h-417v-500h417v42h83v-167c0-46-37-83-83-83h-417c-46 0-83 37-83 83z m500 0v42h-417v-42h417z m-417 750h417v-42h-417v42z m633-273l-58 58-210-210-98 98-59-58 157-157 268 269z" horiz-adv-x="1000" />

<glyph glyph-name="attach_file" unicode="&#xe839;" d="M646 600v-437c0-93-75-167-167-167-92 0-166 74-166 167v437c0 58 46 104 104 104 57 0 104-46 104-104v-396c0-23-19-41-42-41-23 0-41 18-41 41v396h-63v-396c0-57 47-104 104-104 58 0 104 47 104 104v396c0 92-74 167-166 167-92 0-167-75-167-167v-437c0-127 103-230 229-230 127 0 229 103 229 230v437h-62z" horiz-adv-x="1000" />

<glyph glyph-name="today" unicode="&#xe83a;" d="M792 683h-42v84h-83v-84h-334v84h-83v-84h-42c-46 0-83-37-83-83v-583c0-46 37-84 83-84h584c46 0 83 38 83 84v583c0 46-37 83-83 83z m0-666h-584v458h584v-458z m-521 291c0 58 47 105 104 105 58 0 104-47 104-105 0-57-46-104-104-104-57 0-104 47-104 104z" horiz-adv-x="1000" />

<glyph glyph-name="mode_edit" unicode="&#xe83b;" d="M794 700l56-56c33-32 33-85 0-118l-551-551h-174v174l433 434 118 117c33 33 86 33 118 0z m-586-642l59-2 409 409-58 59-410-409v-57z" horiz-adv-x="1000" />

<glyph glyph-name="share" unicode="&#xe83c;" d="M665 150c23 20 52 33 85 33 69 0 125-55 125-125 0-69-56-125-125-125-69 0-125 56-125 125 0 10 2 20 4 29l-294 172c-22-21-52-34-85-34-69 0-125 56-125 125 0 69 56 125 125 125 33 0 63-13 85-34l294 172c-2 9-4 19-4 29 0 69 56 125 125 125 69 0 125-56 125-125 0-69-56-125-125-125-33 0-63 13-85 33l-294-171c2-9 4-19 4-29 0-10-2-20-4-29l294-171z m127 492c0 23-19 41-42 41-23 0-42-18-42-41 0-23 19-42 42-42 23 0 42 19 42 42z m-542-334c-23 0-42 19-42 42 0 23 19 42 42 42 23 0 42-19 42-42 0-23-19-42-42-42z m458-250c0-23 19-41 42-41 23 0 42 18 42 41 0 23-19 42-42 42-23 0-42-19-42-42z" horiz-adv-x="1000" />

<glyph glyph-name="cancel" unicode="&#xe83d;" d="M500 767c-230 0-417-187-417-417 0-230 187-417 417-417 230 0 417 187 417 417 0 230-187 417-417 417z m0-750c-184 0-333 149-333 333 0 184 149 333 333 333 184 0 333-149 333-333 0-184-149-333-333-333z m0 392l150 149 58-58-149-150 149-150-58-58-150 149-150-149-58 58 149 150-149 150 58 58 150-149z" horiz-adv-x="1000" />

<glyph glyph-name="keyboard" unicode="&#xe83e;" d="M833 642h-666c-46 0-83-38-83-84l-1-416c0-46 38-84 84-84h666c46 0 84 38 84 84v416c0 46-38 84-84 84z m0-84v-416h-666v416h666z m-291-41h-84v-84h84v84z m-84-125h84v-84h-84v84z m-41 125h-84v-84h84v84z m-84-125h84v-84h-84v84z m-41 0h-84v-84h84v84z m-84 125h84v-84h-84v84z m459-250h-334v-84h334v84z m-84 125h84v-84h-84v84z m84 125h-84v-84h84v84z m41-125h84v-84h-84v84z m84 125h-84v-84h84v84z" horiz-adv-x="1000" />

<glyph glyph-name="error" unicode="&#xe83f;" d="M500 767c-230 0-417-187-417-417 0-230 187-417 417-417 230 0 417 187 417 417 0 230-187 417-417 417z m-42-625v83h84v-83h-84z m0 416h84v-250h-84v250z" horiz-adv-x="1000" />

<glyph glyph-name="settings" unicode="&#xe840;" d="M638-26c-4-29-30-51-61-51h-154c-31 0-57 22-60 53l-12 79c-11 5-22 12-33 19l-75-30c-29-11-61 1-75 27l-76 132c-15 27-9 60 15 78l63 50c0 6 0 12 0 19 0 6 0 13 0 19l-63 50c-24 19-31 52-15 78l77 133c14 26 46 38 74 26l76-30c11 7 21 13 32 19l12 80c3 29 29 52 60 52h154c31 0 56-23 60-53l11-79c12-6 22-12 33-19l75 30c30 11 62-1 76-27l77-133c15-27 8-60-15-78l-64-50c1-6 1-12 1-19 0-6 0-13-1-19l64-50c23-18 30-51 15-77l-77-134c-14-26-47-38-75-26l-75 30c-11-8-22-14-33-20l-11-79z m-195 32h115l15 107 22 9c18 7 37 18 56 32l19 14 99-40 57 100-84 66 3 24 0 1c1 10 2 20 2 31 0 11-1 22-2 33l-3 23 84 66-58 100-99-40-19 14c-17 14-36 24-55 32l-22 10-15 106h-115l-16-106-22-9c-18-8-37-19-56-33l-19-14-99 40-58-100 85-66-3-23c-1-11-2-22-2-33 0-11 0-22 2-32l3-24-85-66 58-100 99 40 19-14c18-14 36-24 56-32l22-9 16-107z m203 344c0-80-65-146-146-146-81 0-146 66-146 146 0 81 65 146 146 146 81 0 146-65 146-146z" horiz-adv-x="1000" />

<glyph glyph-name="settings_filled" unicode="&#xe841;" d="M810 309c1 14 3 27 3 41 0 14-2 28-3 41l88 69c7 6 10 17 5 26l-84 144c-5 10-16 13-25 10l-104-42c-22 17-45 30-70 41l-16 110c-1 10-10 18-21 18h-166c-11 0-19-8-21-18l-15-110c-26-11-49-25-71-41l-104 42c-9 3-20 0-25-10l-83-144c-6-9-3-20 5-26l88-69c-2-13-3-27-3-41 0-14 1-27 3-41l-88-69c-8-6-10-17-5-26l83-144c5-10 16-13 25-10l104 42c22-17 45-30 71-41l15-110c2-10 10-18 21-18h166c11 0 20 8 21 18l16 110c25 11 48 25 70 41l104-42c9-3 20 0 25 10l84 144c5 9 2 20-5 26l-88 69z m-310-105c-80 0-146 66-146 146 0 80 66 146 146 146 80 0 146-66 146-146 0-80-66-146-146-146z" horiz-adv-x="1000" />

<glyph glyph-name="check_small" unicode="&#xe842;" d="M417 167l-167 166 58 59 109-109 275 275 58-58-333-333z" horiz-adv-x="1000" />

<glyph glyph-name="check_indeterminate_small" unicode="&#xe843;" d="M292 308v84h416v-84h-416z" horiz-adv-x="1000" />

<glyph glyph-name="access_time" unicode="&#xe844;" d="M500 767c-230 0-417-187-417-417 0-230 187-417 417-417 230 0 417 187 417 417 0 230-187 417-417 417z m0-750c-184 0-333 149-333 333 0 184 149 333 333 333 184 0 333-149 333-333 0-184-149-333-333-333z m-42 288l229-137 43 72-188 113v230h-84v-278z" horiz-adv-x="1000" />

<glyph glyph-name="keyboard_return" unicode="&#xe845;" d="M792 558v-166h-507l149 149-59 59-250-250 250-250 59 59-149 149h590v250h-83z" horiz-adv-x="1000" />

<glyph glyph-name="sticker" unicode="&#xe846;" d="M885 196v405c0 74-60 134-134 134h-501c-75 0-135-60-135-134v-501c0-75 60-135 135-135h404l231 231z m-635-154c-32 0-58 26-58 58v501c0 31 26 57 58 57h501c31 0 57-26 57-57v-367h-57c-75 0-135-60-135-134v-58h-366z m164 394c-10 35-47 56-83 46-36-10-57-47-47-83 3-10 8-19 14-26l117 33c2 10 2 20-1 30z m241 68c-10 35-47 56-83 46-36-10-57-47-47-83 3-10 8-19 14-26l117 33c2 10 2 20-1 30z m34-121l-371-105c50-66 137-98 221-74 85 23 142 97 150 179z" horiz-adv-x="1000" />

<glyph glyph-name="more" unicode="&#xe847;" d="M250 433c-46 0-83-37-83-83 0-46 37-83 83-83 46 0 83 37 83 83 0 46-37 83-83 83z m500 0c-46 0-83-37-83-83 0-46 37-83 83-83 46 0 83 37 83 83 0 46-37 83-83 83z m-333-83c0 46 37 83 83 83 46 0 83-37 83-83 0-46-37-83-83-83-46 0-83 37-83 83z" horiz-adv-x="1000" />

<glyph glyph-name="mic" unicode="&#xe848;" d="M625 371c0-69-56-125-125-125-69 0-125 56-125 125v250c0 69 56 125 125 125 69 0 125-56 125-125v-250z m-125-208c115 0 208 93 208 208h84c0-147-109-268-250-288v-129h-84v129c-141 20-250 141-250 288h84c0-115 93-208 208-208z" horiz-adv-x="1000" />

<glyph glyph-name="language" unicode="&#xe849;" d="M83 350c0 230 187 417 417 417 230 0 417-187 417-417 0-230-187-417-417-417-230 0-417 187-417 417z m582 167h123c-40 68-103 122-180 148 25-46 44-96 57-148z m-165 165c-35-50-62-106-80-165h160c-18 59-45 115-80 165z m-333-332c0-29 4-57 11-83h140c-3 27-5 55-5 83 0 28 2 56 5 83h-140c-7-26-11-54-11-83z m45-167c40-69 103-122 180-148-25 46-44 96-57 148h-123z m0 334h123c13 52 32 102 57 148-77-26-140-79-180-148z m288-499c35 50 62 106 80 165h-160c18-59 45-115 80-165z m-104 332c0-28 3-56 7-83h195c3 27 6 55 6 83 0 28-3 56-6 83h-195c-4-27-7-55-7-83z m212-315c77 26 140 80 180 148h-123c-13-52-32-102-57-148z m80 315c0-28-3-56-6-83h141c6 26 10 54 10 83 0 29-4 57-10 83h-141c3-27 6-55 6-83z" horiz-adv-x="1000" />

<glyph glyph-name="translate" unicode="&#xe84a;" d="M817 627h-361l-35 119h-238c-43 0-79-36-79-79v-515c0-43 36-79 79-79h277l40-119h317c43 0 79 36 79 79v515c0 44-36 79-79 79z m-508-379c-89 0-162 72-162 161 0 90 72 162 162 162 41 0 79-14 108-42l3-2-49-47-2 2c-11 11-31 23-60 23-52 0-94-43-94-96 0-52 42-95 94-95 54 0 77 34 84 57h-88v62h157l0-3c2-8 2-16 2-24 0-93-64-158-155-158z m239 67c13-24 29-46 47-67l-22-21-25 88z m30 30h-39l-12 41h158c0 0-14-51-62-108-21 25-35 49-45 67z m278-312c0-21-18-39-39-39h-277l79 79-32 110 36 36 106-106 29 28-107 107c35 40 63 89 76 138h50v42h-144v41h-41v-41h-78l-46 160h349c21 0 39-18 39-40v-515z" horiz-adv-x="1000" />

<glyph glyph-name="gif" unicode="&#xe84b;" d="M464 558h107v-428h-107v428z m-178 0h-215c-42 0-71-35-71-71v-286c0-35 29-71 71-71h215c43 0 71 36 71 71v143h-107v-107h-143v214h250v36c0 36-28 71-71 71z m714-107v107h-321v-428h107v143h143v107h-143v71h214z" horiz-adv-x="1000" />
</font>
</defs>
</svg>
